<svg xmlns="http://www.w3.org/2000/svg" xmlns:xlink="http://www.w3.org/1999/xlink" width="25.826" height="22.597" viewBox="0 0 25.826 22.597">
  <defs>
    <clipPath id="clip-path">
      <path id="ArrowLeft" d="M24.212,9.684H5.06l5.864-7.037A1.614,1.614,0,0,0,8.445.581L.374,10.266a1.52,1.52,0,0,0-.142.249,1.529,1.529,0,0,0-.115.2A1.591,1.591,0,0,0,0,11.292s0,0,0,.006,0,0,0,.006a1.591,1.591,0,0,0,.116.578,1.529,1.529,0,0,0,.115.2,1.52,1.52,0,0,0,.142.249l8.071,9.685a1.614,1.614,0,0,0,2.479-2.066L5.06,12.913H24.212a1.614,1.614,0,1,0,0-3.228" transform="translate(0 0)" fill="#00B89F"/>
    </clipPath>
  </defs>
  <g id="Group_836" data-name="Group 836" transform="translate(-4 -5)">
    <path id="ArrowLeft-2" data-name="ArrowLeft" d="M24.212,9.684H5.06l5.864-7.037A1.614,1.614,0,0,0,8.445.581L.374,10.266a1.52,1.52,0,0,0-.142.249,1.529,1.529,0,0,0-.115.2A1.591,1.591,0,0,0,0,11.292s0,0,0,.006,0,0,0,.006a1.591,1.591,0,0,0,.116.578,1.529,1.529,0,0,0,.115.2,1.52,1.52,0,0,0,.142.249l8.071,9.685a1.614,1.614,0,0,0,2.479-2.066L5.06,12.913H24.212a1.614,1.614,0,1,0,0-3.228" transform="translate(4 5)" fill="#00B89F"/>
  </g>
</svg>
