<?xml version="1.0" encoding="utf-8"?>
<svg viewBox="-48.954 13.138 17.899 19.558" preserveAspectRatio="xMinYMin" width="1920px" height="1020px" xmlns="http://www.w3.org/2000/svg">
  <path d="M14 1a1 1 0 0 1 1 1v12a1 1 0 0 1-1 1H2a1 1 0 0 1-1-1V2a1 1 0 0 1 1-1h12zM2 0a2 2 0 0 0-2 2v12a2 2 0 0 0 2 2h12a2 2 0 0 0 2-2V2a2 2 0 0 0-2-2H2z" transform="matrix(1, 0, 0, 1, -47.450741, 16.699361)" style="fill: rgb(255, 0, 0);"/>
  <path d="M 3.197 3.397 C 3.392 3.201 3.976 3.4 4.171 3.596 L 8 7.293 L 11.879 3.496 C 12.152 3.223 12.617 3.115 12.717 3.487 C 12.763 3.66 12.846 3.862 12.72 3.988 L 8.707 8 L 12.587 11.772 C 12.86 12.045 12.916 12.44 12.544 12.54 C 12.371 12.586 11.996 12.339 11.87 12.213 L 8 8.707 L 4.113 12.337 C 3.84 12.61 3.296 12.735 3.196 12.362 C 3.15 12.19 3.316 11.976 3.442 11.85 L 7.293 8 L 3.396 4.321 C 3.2 4.126 3.001 3.592 3.197 3.397 Z" transform="matrix(1, 0, 0, 1, -47.450741, 16.699361)" style="fill: rgb(255, 0, 0);"/>
</svg>