<svg id="_353430_checkbox_pen_edit_pencil_icon" data-name="353430_checkbox_pen_edit_pencil_icon" xmlns="http://www.w3.org/2000/svg" width="14.083" height="13.5" viewBox="0 0 14.083 13.5">
  <path id="Path_900" data-name="Path 900" d="M47.814,10.05l-1.26-1.258a.668.668,0,0,0-.943,0L44.6,9.8l2.2,2.2,1.008-1A.665.665,0,0,0,47.814,10.05Z" transform="translate(-33.927 -8.597)" fill="#00B89F"/>
  <path id="Path_901" data-name="Path 901" d="M21.922,20.449l2.2,2.2L30.2,16.59l-2.2-2.2Z" transform="translate(-17.787 -12.719)" fill="#00B89F"/>
  <path id="Path_902" data-name="Path 902" d="M19.112,37.028l-.47,2.668,2.674-.469Z" transform="translate(-15.453 -28.828)" fill="#00B89F"/>
  <path id="Path_903" data-name="Path 903" d="M17.337,26.347H9.028V18.039h5.863L16.337,16.6H8.519a.935.935,0,0,0-.933.933v9.327a.935.935,0,0,0,.933.933h9.327a.935.935,0,0,0,.933-.933V20.188l-1.442,1.44Z" transform="translate(-7.586 -14.29)" fill="#00B89F"/>
</svg>
