<svg id="Group_834" data-name="Group 834" xmlns="http://www.w3.org/2000/svg" xmlns:xlink="http://www.w3.org/1999/xlink" width="16" height="12.8" viewBox="0 0 20 16">
  <defs>
    <clipPath id="clip-path">
      <path id="Email" d="M17,16H3a3,3,0,0,1-3-3V3A3,3,0,0,1,3,0H17a3,3,0,0,1,3,3V13A3,3,0,0,1,17,16ZM2,3.25V13a1,1,0,0,0,1,1H17a1,1,0,0,0,1-1V3.25L10.6,8.8a1,1,0,0,1-1.2,0ZM3.667,2,10,6.75,16.333,2Z" fill="#14b498"/>
    </clipPath>
  </defs>
  <path id="Email-2" data-name="Email" d="M17,16H3a3,3,0,0,1-3-3V3A3,3,0,0,1,3,0H17a3,3,0,0,1,3,3V13A3,3,0,0,1,17,16ZM2,3.25V13a1,1,0,0,0,1,1H17a1,1,0,0,0,1-1V3.25L10.6,8.8a1,1,0,0,1-1.2,0ZM3.667,2,10,6.75,16.333,2Z" transform="translate(0 0)" fill="#14b498"/>
</svg>
