<svg xmlns="http://www.w3.org/2000/svg" width="23.732" height="14.038" viewBox="0 0 20.342 14.787">
    <g transform="translate(-465.106 -20.106)">
        <path d="M12,9a4,4,0,1,1-4,4A4,4,0,0,1,12,9Zm0,1.5A2.5,2.5,0,1,0,14.5,13,2.5,2.5,0,0,0,12,10.5Zm0-5a10,10,0,0,1,9.7,7.564.75.75,0,1,1-1.455.364,8.5,8.5,0,0,0-16.493,0A.75.75,0,0,1,2.3,13.07,10,10,0,0,1,12,5.5Z" transform="translate(463.725 14.748)" fill="#fff"/>
        <line x2="17" y2="12" transform="translate(466.5 21.5)" fill="none" stroke="#fff" stroke-linecap="round" stroke-width="2"/>
    </g>
</svg>