<svg xmlns="http://www.w3.org/2000/svg" width="13.189" height="13.189" viewBox="0 0 13.189 13.189">
  <path id="_3994363_arrange_filter_funnel_sort_sorting_icon" data-name="3994363_arrange_filter_funnel_sort_sorting_icon" d="M8.245,13.19h-3.3a.824.824,0,0,1-.824-.824V7.656l-4-6.395A.824.824,0,0,1,.826,0h11.54a.824.824,0,0,1,.7,1.261l-4,6.395v4.709a.824.824,0,0,1-.824.824ZM5.772,11.541H7.42V7.419a.819.819,0,0,1,.126-.436l3.333-5.334H2.313L5.646,6.983a.819.819,0,0,1,.126.436Z" transform="translate(-0.002 -0.001)" fill="#00B89F"/>
</svg>
