<svg xmlns="http://www.w3.org/2000/svg" width="8.523" height="10.403" viewBox="0 0 8.523 10.403">
  <g id="Layer_21" data-name="Layer 21" transform="translate(0.5 0.5)">
    <path id="Path_865" data-name="Path 865" d="M7.76,10.4a.94.94,0,0,1-.693-.313C5.924,8.836,4,6.45,4,4.874A3.821,3.821,0,0,1,7.76,1a3.821,3.821,0,0,1,3.761,3.874c0,1.567-1.924,3.946-3.068,5.219A.94.94,0,0,1,7.76,10.4Zm0-8.776A3.2,3.2,0,0,0,4.626,4.874c0,.984,1.088,2.777,2.909,4.8a.313.313,0,0,0,.451,0c1.821-2.022,2.909-3.814,2.909-4.8A3.2,3.2,0,0,0,7.76,1.627Z" transform="translate(-3.999 -1)" fill="#00B89F" stroke="#00B89F" stroke-width="1"/>
    <path id="Path_866" data-name="Path 866" d="M11.881,10.761a1.881,1.881,0,1,1,1.881-1.881A1.881,1.881,0,0,1,11.881,10.761Zm0-3.134a1.254,1.254,0,1,0,1.254,1.254A1.254,1.254,0,0,0,11.881,7.627Z" transform="translate(-8.119 -5.119)" fill="#00B89F" stroke="#00B89F" stroke-width="1"/>
  </g>
</svg>
