<svg id="Group_835" data-name="Group 835" xmlns="http://www.w3.org/2000/svg" xmlns:xlink="http://www.w3.org/1999/xlink" width="14" height="14" viewBox="0 0 16 16">
  <defs>
    <clipPath id="clip-path">
      <path id="Phone" d="M12.32,16A12.334,12.334,0,0,1,0,3.68,3.684,3.684,0,0,1,3.68,0a3.587,3.587,0,0,1,.613.052A3.482,3.482,0,0,1,4.873.2a.8.8,0,0,1,.518.577l1.1,4.771a.8.8,0,0,1-.2.733c-.108.113-.11.115-1.1.635a7.941,7.941,0,0,0,3.9,3.907c.52-.993.522-1,.636-1.1a.8.8,0,0,1,.557-.222.816.816,0,0,1,.176.019l4.772,1.1a.793.793,0,0,1,.576.516,3.5,3.5,0,0,1,.148.585A3.609,3.609,0,0,1,16,12.32,3.684,3.684,0,0,1,12.32,16ZM3.68,1.6A2.082,2.082,0,0,0,1.6,3.68,10.732,10.732,0,0,0,12.32,14.4a2.082,2.082,0,0,0,2.08-2.08,2.122,2.122,0,0,0-.017-.262l-3.7-.848-.059.112-.169.324c-.294.562-.527,1.005-.963,1.005a.908.908,0,0,1-.339-.074A9.479,9.479,0,0,1,3.413,6.811c-.286-.629.259-.913.948-1.273l.429-.225-.847-3.7A2.038,2.038,0,0,0,3.68,1.6Z" transform="translate(0 0)" fill="#14b498"/>
    </clipPath>
  </defs>
  <path id="Phone-2" data-name="Phone" d="M12.32,16A12.334,12.334,0,0,1,0,3.68,3.684,3.684,0,0,1,3.68,0a3.587,3.587,0,0,1,.613.052A3.482,3.482,0,0,1,4.873.2a.8.8,0,0,1,.518.577l1.1,4.771a.8.8,0,0,1-.2.733c-.108.113-.11.115-1.1.635a7.941,7.941,0,0,0,3.9,3.907c.52-.993.522-1,.636-1.1a.8.8,0,0,1,.557-.222.816.816,0,0,1,.176.019l4.772,1.1a.793.793,0,0,1,.576.516,3.5,3.5,0,0,1,.148.585A3.609,3.609,0,0,1,16,12.32,3.684,3.684,0,0,1,12.32,16ZM3.68,1.6A2.082,2.082,0,0,0,1.6,3.68,10.732,10.732,0,0,0,12.32,14.4a2.082,2.082,0,0,0,2.08-2.08,2.122,2.122,0,0,0-.017-.262l-3.7-.848-.059.112-.169.324c-.294.562-.527,1.005-.963,1.005a.908.908,0,0,1-.339-.074A9.479,9.479,0,0,1,3.413,6.811c-.286-.629.259-.913.948-1.273l.429-.225-.847-3.7A2.038,2.038,0,0,0,3.68,1.6Z" transform="translate(0 0)" fill="#14b498"/>
</svg>
