<svg xmlns="http://www.w3.org/2000/svg" width="23.732" height="14.038" viewBox="0 0 23.732 14.038">
  <path id="_8674868_ic_fluent_eye_show_regular_icon" data-name="8674868_ic_fluent_eye_show_regular_icon" d="M14.142,9.776a4.881,4.881,0,1,1-4.881,4.881A4.881,4.881,0,0,1,14.142,9.776Zm0,1.83a3.051,3.051,0,1,0,3.051,3.051A3.051,3.051,0,0,0,14.142,11.607Zm0-6.107A12.207,12.207,0,0,1,25.98,14.73a.915.915,0,1,1-1.776.444,10.376,10.376,0,0,0-20.126.006A.915.915,0,0,1,2.3,14.737,12.207,12.207,0,0,1,14.142,5.5Z" transform="translate(-2.275 -5.5)" fill="#fff"/>
</svg>
